<svg width="49" height="49" viewBox="0 0 49 49" fill="none" xmlns="http://www.w3.org/2000/svg">
<path d="M48.8848 24.5215C48.8848 37.7763 38.1396 48.5215 24.8848 48.5215C11.6299 48.5215 0.884766 37.7763 0.884766 24.5215C0.884766 11.2667 11.6299 0.521484 24.8848 0.521484C38.1396 0.521484 48.8848 11.2667 48.8848 24.5215Z" fill="#F5F5F4"/>
<path d="M24.0124 13.9121L22.5243 20.5564L16.3102 11.7227L18.1627 22.3631L12.4119 18.7169L20.0618 24.9046C20.9217 24.2542 21.917 23.7736 22.9979 23.5123L24.0124 13.9121Z" fill="#F94839"/>
<path d="M29.7077 24.9045C28.8478 24.2542 27.8525 23.7735 26.7715 23.5123L25.757 13.9119L27.2452 20.5564L33.4592 11.7227L31.6068 22.3631L37.3574 18.7169L29.7077 24.9045Z" fill="#F94839"/>
<path d="M32.8428 30.4359C32.7481 29.5454 32.5074 28.6986 32.1451 27.9199L38.5909 19.9508L34.945 25.7013L45.5854 23.8488L36.7516 30.0628L43.3962 31.551L32.8428 30.4359Z" fill="#F94839"/>
<path d="M17.6244 27.9199C17.2621 28.6987 17.0214 29.5455 16.9267 30.4358L6.37323 31.551L13.0179 30.0628L4.18408 23.8488L14.8245 25.7013L11.1786 19.9509L17.6244 27.9199Z" fill="#F94839"/>
<path d="M30.1705 30.4337H19.599C19.6104 27.5242 21.9725 25.1691 24.8847 25.1691C27.7969 25.1691 30.1591 27.5242 30.1705 30.4337Z" fill="#F94839"/>
</svg>
