<svg width="192" height="192" viewBox="0 0 192 192" fill="none" xmlns="http://www.w3.org/2000/svg">
<path d="M0 12C0 5.37258 5.37258 0 12 0H180C186.627 0 192 5.37258 192 12V180C192 186.627 186.627 192 180 192H12C5.37258 192 0 186.627 0 180V12Z" fill="black"/>
<path d="M14 54V134.817H39.3673V124.631H27.2463V64.154H39.3673V54H14Z" fill="white"/>
<path d="M59.1159 105.03L56.5119 120.608H42.8155L53.7469 55.2134H67.4433L61.5987 90.1777H62.2992L81.3005 71.562H97.0225L75.144 92.8493L89.7241 120.608H73.6807L63.554 100.819L59.1159 105.03Z" fill="white"/>
<path fill-rule="evenodd" clip-rule="evenodd" d="M92.5213 139L103.903 71.562H117.406L116.024 79.8001H116.635C117.449 78.4803 118.532 77.1392 119.882 75.7769C121.254 74.3932 122.958 73.2437 124.994 72.3283C127.03 71.3917 129.42 70.9234 132.164 70.9234C135.786 70.9234 138.948 71.86 141.648 73.7333C144.349 75.5853 146.3 78.3845 147.5 82.1311C148.722 85.8564 148.861 90.5289 147.918 96.1488C147.018 101.62 145.356 106.239 142.934 110.007C140.534 113.753 137.651 116.595 134.286 118.532C130.942 120.448 127.395 121.406 123.644 121.406C120.986 121.406 118.8 120.97 117.085 120.097C115.392 119.224 114.073 118.128 113.13 116.808C112.187 115.467 111.523 114.115 111.137 112.753H110.622L106.25 139H92.5213ZM113.195 96.0849C112.723 99.0013 112.702 101.545 113.13 103.716C113.58 105.888 114.481 107.58 115.831 108.793C117.181 109.985 118.96 110.582 121.168 110.582C123.397 110.582 125.38 109.975 127.116 108.761C128.852 107.527 130.299 105.824 131.456 103.653C132.614 101.46 133.439 98.9374 133.932 96.0849C134.382 93.2537 134.393 90.7631 133.964 88.6131C133.536 86.4631 132.657 84.7814 131.328 83.568C129.999 82.3546 128.198 81.7479 125.926 81.7479C123.719 81.7479 121.736 82.3333 119.978 83.5041C118.242 84.6749 116.795 86.3353 115.638 88.4853C114.481 90.6354 113.666 93.1685 113.195 96.0849Z" fill="white"/>
<path d="M179 134.817V54H153.633V64.154H165.754V124.631H153.633V134.817H179Z" fill="white"/>
</svg>
