<svg width="978" height="978" viewBox="0 0 978 978" fill="none" xmlns="http://www.w3.org/2000/svg">
<path d="M147.896 489C147.896 472.1 161.597 458.399 178.497 458.399H799.503C816.403 458.399 830.104 472.1 830.104 489C830.104 505.9 816.403 519.601 799.503 519.601H178.497C161.597 519.601 147.896 505.9 147.896 489Z" fill="#D7D7D7"/>
<path fill-rule="evenodd" clip-rule="evenodd" d="M977.948 489C977.948 759.038 759.038 977.948 489 977.948C218.961 977.948 0.0520325 759.038 0.0520325 489C0.0520325 218.961 218.961 0.0520325 489 0.0520325C759.038 0.0520325 977.948 218.961 977.948 489ZM175.199 700.738C155.822 700.738 144.063 721.713 155.648 737.245C231.418 838.827 352.527 904.606 489 904.606C625.473 904.606 746.582 838.827 822.352 737.245C833.937 721.713 822.178 700.738 802.801 700.738H175.199ZM127.638 639C115.819 639 100.094 636.359 96.2226 625.192C81.4303 582.525 73.3942 536.701 73.3942 489C73.3942 441.299 81.4303 395.475 96.2226 352.808C100.094 341.641 115.819 339 127.638 339H850.362C862.181 339 877.906 341.641 881.777 352.808C896.57 395.475 904.606 441.299 904.606 489C904.606 536.701 896.57 582.525 881.777 625.192C877.906 636.359 862.181 639 850.362 639H127.638ZM155.648 240.755C144.063 256.287 155.822 277.262 175.199 277.262H802.801C822.178 277.262 833.937 256.287 822.352 240.755C746.582 139.173 625.473 73.3942 489 73.3942C352.527 73.3942 231.418 139.173 155.648 240.755Z" fill="#D7D7D7"/>
</svg>
